<svg xmlns="http://www.w3.org/2000/svg" width="186" height="262"><path fill="#E8E7E7" fill-rule="evenodd" d="M69.72 0c.875 0 1.583.709 1.583 1.583v258.834c0 .874-.708 1.583-1.583 1.583H1.583A1.583 1.583 0 0 1 0 260.417V1.583C0 .71.709 0 1.583 0H69.72ZM49.918 203.426H21.385a6.332 6.332 0 0 0-6.328 6.1l-.004.232v28.496c0 3.42 2.71 6.206 6.1 6.328l.232.004h28.533c3.42 0 6.206-2.71 6.328-6.1l.005-.232v-28.496a6.332 6.332 0 0 0-6.333-6.332Zm87.19-96.624c1.823 14.375 6.848 25.74 15.074 34.092 8.226 8.353 19.498 13.538 33.818 15.556-15.135 1.195-26.407 5.51-33.818 12.944-7.41 7.434-12.436 19.469-15.074 36.103-2.295-16.099-7.57-28.133-15.827-36.103-8.256-7.97-19.918-12.284-34.983-12.944 15.033-1.744 26.694-6.665 34.983-14.764 8.289-8.1 13.564-19.727 15.827-34.884Zm-87.19 34.092H21.385a6.332 6.332 0 0 0-6.328 6.1l-.004.233v28.495c0 3.42 2.71 6.206 6.1 6.328l.232.004h28.533c3.42 0 6.206-2.71 6.328-6.1l.005-.232v-28.495a6.332 6.332 0 0 0-6.333-6.333Zm0-62.531H21.385a6.332 6.332 0 0 0-6.328 6.1l-.004.232v28.495c0 3.42 2.71 6.206 6.1 6.328l.232.005h28.533c3.42 0 6.206-2.71 6.328-6.1l.005-.233V84.695a6.332 6.332 0 0 0-6.333-6.332ZM186 0v106.802c-8.666-33.207-19.823-58.6-33.47-76.179C138.883 13.045 122.123 2.837 102.25 0H186ZM49.918 15.83H21.385a6.332 6.332 0 0 0-6.328 6.101l-.004.232V50.66c0 3.42 2.71 6.206 6.1 6.328l.232.004h28.533c3.42 0 6.206-2.71 6.328-6.1l.005-.232V22.163a6.332 6.332 0 0 0-6.333-6.332Z"/></svg>